<svg xmlns="http://www.w3.org/2000/svg" viewBox="0 0 91 67">
  <defs>
    <style>
      .cls-1 {
        fill: #fe0000;
        stroke: #fe0000;
      }
    </style>
  </defs>
  <path id="banner" class="cls-1" d="M10,36V56H60V66H90V61a12.078,12.078,0,0,0-4.8-9.6A10.976,10.976,0,0,0,80,49.2V36m0-6V10H30V0H0V5A11.85,11.85,0,0,0,10,16.8V30H80ZM7.2,11.4A8.052,8.052,0,0,1,4,5V4H20.4L10,9.8v2.9A7.19,7.19,0,0,1,7.2,11.4ZM14,17V14H76V26H14Zm0,23H76V52H14ZM86,62H69.6L80,56.2V53.3A8.014,8.014,0,0,1,86,61Z" transform="translate(0.5 0.5)"/>
</svg>
