<svg xmlns="http://www.w3.org/2000/svg" viewBox="0 0 95.999 95.999">
  <defs>
    <style>
      .cls-1 {
        fill: #fe0000;
      }
    </style>
  </defs>
  <path id="Dizruptiv-Training" class="cls-1" d="M316.812,10609a2.812,2.812,0,0,1-2.812-2.812v-2.814a16.889,16.889,0,0,1,8.714-14.766,11.213,11.213,0,0,1-3.089-7.732h-2.814a2.812,2.812,0,0,1-2.812-2.812,25.357,25.357,0,0,1,15.762-23.443,14.062,14.062,0,1,1,19.106,0,25.271,25.271,0,0,1,14.348,15.1,11.239,11.239,0,0,1,6.755,18.894,16.98,16.98,0,0,1,7.322,8.054,16.914,16.914,0,0,1,3.637-5.237,17.154,17.154,0,0,1,3.826-2.838,11.243,11.243,0,0,1,8.182-18.963,11.458,11.458,0,0,1,8.017,3.268,11.023,11.023,0,0,1,.232,15.732,17.351,17.351,0,0,1,3.759,2.8,16.644,16.644,0,0,1,5.053,11.949v2.814a2.812,2.812,0,0,1-2.812,2.812Zm64.688-5.626h22.874a11.438,11.438,0,0,0-22.874,0Zm-30.938,0h22.5a11.25,11.25,0,0,0-22.5,0Zm-30.936,0h22.5a11.249,11.249,0,0,0-22.5,0Zm19.407-14.766a16.983,16.983,0,0,1,7.311,8.027,16.991,16.991,0,0,1,7.309-8.027,11.2,11.2,0,0,1-3.091-7.732h-8.437A11.2,11.2,0,0,1,339.033,10588.607Zm48.279-7.732a5.632,5.632,0,0,0,5.626,5.623,5.628,5.628,0,1,0,0-11.249A5.633,5.633,0,0,0,387.312,10580.875Zm-31.125,0a5.625,5.625,0,1,0,5.626-5.626A5.632,5.632,0,0,0,356.188,10580.875Zm-30.938,0a5.626,5.626,0,1,0,5.626-5.626A5.632,5.632,0,0,0,325.249,10580.875Zm15.363-5.626h11.465a11.311,11.311,0,0,1,5.413-4.761,19.691,19.691,0,0,0-37.664,4.761h1.313a11.239,11.239,0,0,1,19.474,0Zm-9.737-30.936a8.437,8.437,0,1,0,8.438-8.44A8.447,8.447,0,0,0,330.875,10544.313Zm36.562,14.061a8.448,8.448,0,0,1-8.437-8.437v-28.312a8.67,8.67,0,0,1,2.428-6.015,8.263,8.263,0,0,1,6.009-2.609h34.125a8.273,8.273,0,0,1,6.012,2.609,8.68,8.68,0,0,1,2.426,6.015v28.313a8.448,8.448,0,0,1-8.437,8.438Zm-2.812-36.75v28.313a2.818,2.818,0,0,0,2.812,2.814h34.125a2.816,2.816,0,0,0,2.812-2.814v-28.312a2.987,2.987,0,0,0-2.812-3H367.437A2.987,2.987,0,0,0,364.625,10521.624Zm19.876,25.507a2.812,2.812,0,0,1-2.812-2.81v-11.262a2.81,2.81,0,0,1,2.812-2.81h.008a2.81,2.81,0,0,1,2.812,2.81v11.262a2.812,2.812,0,0,1-2.812,2.81Zm11.249-.011a2.808,2.808,0,0,1-2.809-2.81v-16.88a2.81,2.81,0,0,1,2.809-2.812h.011a2.81,2.81,0,0,1,2.809,2.812v16.88a2.808,2.808,0,0,1-2.809,2.81Zm-22.69,0a2.808,2.808,0,0,1-2.809-2.81v-5.631a2.808,2.808,0,0,1,2.809-2.809h.011a2.808,2.808,0,0,1,2.809,2.809v5.631a2.808,2.808,0,0,1-2.809,2.81Z" transform="translate(-314 -10513)"/>
</svg>
