<svg xmlns="http://www.w3.org/2000/svg" viewBox="0 0 63 87">
  <defs>
    <style>
      .cls-1 {
        fill: #fe0000;
      }
    </style>
  </defs>
  <path id="Exclusive-ICO_" data-name="Exclusive-ICO " class="cls-1" d="M740,10064.5v-23.109a6.822,6.822,0,0,0-6.848-6.8,6.948,6.948,0,0,0-1.37.137v-6.934a6.847,6.847,0,0,0-13.692-.136h-.007a6.847,6.847,0,0,0-13.689,0h-.007a6.847,6.847,0,0,0-13.689,0h-.007a6.848,6.848,0,0,0-13.692.136v33.984l5.478,13.594V10108H726.3v-8.156h10.956v-8.155H726.3v-16.313Zm-21.913,35.344H690.7v-8.155h27.391Zm0-28.389v12.076H690.7v-9.728l-5.478-13.593v-24.121h38.348v8.626l8.217-1.661v17.525Z" transform="translate(-677 -10020.999)"/>
</svg>
