<svg xmlns="http://www.w3.org/2000/svg" viewBox="0 0 90.999 91.002">
  <defs>
    <style>
      .cls-1 {
        fill: #fe0000;
      }
    </style>
  </defs>
  <path id="Local-Networking-Events" class="cls-1" d="M326,10356a8.009,8.009,0,0,1-8-8v-69.671a8.007,8.007,0,0,1,8-8h2.667v-2.666a2.667,2.667,0,1,1,5.333,0v2.666H344.66v-2.666a2.665,2.665,0,1,1,5.331,0v2.666h10.843v-2.666a2.665,2.665,0,1,1,5.331,0v2.666h10.666v-2.666a2.665,2.665,0,1,1,5.331,0v2.666H393v-2.666a2.665,2.665,0,1,1,5.331,0v2.666H401a8.005,8.005,0,0,1,8,8V10348a8.007,8.007,0,0,1-8,8Zm-2.664-8a2.668,2.668,0,0,0,2.664,2.667h75a2.669,2.669,0,0,0,2.667-2.667v-2.664H323.333Zm0-8h80.336v-48.344H323.333Zm0-61.674v8h80.336v-8a2.671,2.671,0,0,0-2.667-2.667h-2.667v2.667a2.665,2.665,0,1,1-5.331,0v-2.667H382.162v2.667a2.665,2.665,0,1,1-5.331,0v-2.667H366.165v2.667a2.665,2.665,0,1,1-5.331,0v-2.667H349.991v2.667a2.665,2.665,0,1,1-5.331,0v-2.667H334v2.667a2.667,2.667,0,0,1-5.333,0v-2.667H326A2.67,2.67,0,0,0,323.333,10278.329Zm49.049,56.037-9.164-4.818-9.338,4.826a2.666,2.666,0,0,1-3.847-2.852l1.9-10.336-7.545-7.2a2.667,2.667,0,0,1,1.461-4.569l10.4-1.486,4.579-9.435a2.665,2.665,0,0,1,4.8,0l4.582,9.438,10.225,1.486a2.664,2.664,0,0,1,1.476,4.546l-7.41,7.223,1.754,10.375a2.667,2.667,0,0,1-3.87,2.8Zm-7.914-10.186,5.629,2.96-1.089-6.442a2.671,2.671,0,0,1,.767-2.355l4.543-4.426-6.277-.912a2.662,2.662,0,0,1-2.014-1.474l-2.8-5.768-2.8,5.768a2.668,2.668,0,0,1-2.022,1.474l-6.365.912,4.616,4.408a2.669,2.669,0,0,1,.782,2.409l-1.18,6.406,5.744-2.968a2.658,2.658,0,0,1,2.464.008Z" transform="translate(-318 -10264.998)"/>
</svg>
