<svg xmlns="http://www.w3.org/2000/svg" viewBox="0 0 92 80.999">
  <defs>
    <style>
      .cls-1 {
        fill: #fe0000;
      }
    </style>
  </defs>
  <path id="MORE-TOOLS-ON-THE-WAY" class="cls-1" d="M1087.525,10527.529a25.456,25.456,0,0,0-36.147,0l-2.379,2.395-2.379-2.395a25.456,25.456,0,0,0-36.147,0,25.861,25.861,0,0,0,0,36.372l35.711,35.934a3.876,3.876,0,0,0,2.07,1.09,3.943,3.943,0,0,0,3.559-1.09l35.711-35.934A25.861,25.861,0,0,0,1087.525,10527.529Zm-5.583,30.755L1049,10591.433l-32.943-33.148a17.872,17.872,0,0,1,0-25.136,17.593,17.593,0,0,1,24.979,0l5.172,5.206a4.047,4.047,0,0,0,5.585,0l5.17-5.206a17.593,17.593,0,0,1,24.978,0A17.87,17.87,0,0,1,1081.942,10558.284Z" transform="translate(-1003 -10520)"/>
</svg>
