<svg xmlns="http://www.w3.org/2000/svg" viewBox="0 0 86.999 86.999">
  <defs>
    <style>
      .cls-1 {
        fill: #fe0000;
      }
    </style>
  </defs>
  <path id="Private-Hackathon" class="cls-1" d="M688.241,10600.525l-.538-.264-.482.352a8.776,8.776,0,0,1-13.233-10.532l.237-.551-.381-.466a43.51,43.51,0,0,1-.319-54.733l.386-.481-.263-.56a8.774,8.774,0,0,1,13.214-10.744l.492.37.548-.277a43.708,43.708,0,0,1,38.64-.271l.514.251.476-.322a8.779,8.779,0,0,1,13.156,10.3l-.2.541.37.438a43.509,43.509,0,0,1,.3,55.484l-.381.466.237.551a8.774,8.774,0,0,1-13.233,10.532l-.482-.352-.538.264a43.69,43.69,0,0,1-38.517,0Zm2.6-7.011a8.655,8.655,0,0,1-.048.908l-.072.691.628.3a37.541,37.541,0,0,0,32.3,0l.628-.3-.072-.691a8.655,8.655,0,0,1-.048-.908,8.776,8.776,0,0,1,11.62-8.3l.657.226.434-.543a37.137,37.137,0,0,0,8.2-23.4,37.64,37.64,0,0,0-8.261-23.48l-.455-.566-.679.269a8.76,8.76,0,0,1-11.91-9.323l.1-.722-.663-.306a37.512,37.512,0,0,0-32.321.444l-.6.3.059.671c.024.279.035.529.035.771a8.772,8.772,0,0,1-11.319,8.395l-.647-.194-.418.53a37.495,37.495,0,0,0,.152,46.607l.434.543.657-.226a8.776,8.776,0,0,1,11.62,8.3Zm3.274-10.6a3.421,3.421,0,0,1-3.423-3.42v-21.818a3.423,3.423,0,0,1,3.423-3.423h.114v-6a11.737,11.737,0,0,1,11.721-11.725h3.1a11.738,11.738,0,0,1,11.724,11.725v6h.112a3.423,3.423,0,0,1,3.423,3.423v21.818a3.421,3.421,0,0,1-3.42,3.42Zm9.965-15.58v4.277a3.421,3.421,0,0,0,6.843,0v-4.277a3.421,3.421,0,1,0-6.843,0Zm-3.151-19.08v6h13.145v-6a5.031,5.031,0,0,0-5.025-5.025h-3.1A5.029,5.029,0,0,0,700.929,10548.251Z" transform="translate(-664 -10518)"/>
</svg>
