<svg xmlns="http://www.w3.org/2000/svg" viewBox="0 0 82.006 78.991">
  <defs>
    <style>
      .cls-1 {
        fill: #fe0000;
      }
    </style>
  </defs>
  <path id="Private-Mobile-Telegram_" data-name="Private-Mobile-Telegram " class="cls-1" d="M1086.484,10030.719a7.11,7.11,0,0,0-5.686-2.715,9.827,9.827,0,0,0-4.529,1.2l-65.378,33.9c-4.646,2.413-4.971,6.047-4.893,7.5s.784,5.033,5.659,6.948l8.354,3.269a14.358,14.358,0,0,0,5.265.939c.3,0,.592-.039.889-.054-.114.143-.252.255-.358.407-1.557,2.3-1.635,5.427-.225,8.787a1.273,1.273,0,0,0,.066.154c2.47,5.415,5.22,11.525,5.551,12.375a5.621,5.621,0,0,0,5.193,3.567c3.525,0,4.574-1.679,10.344-10.97a9.357,9.357,0,0,0,1.62-4.279c.673.271,1.307.521,1.848.737l9.256,3.729c1.854.748,3.48,1.408,4.336,1.759a5.752,5.752,0,0,0,.839.416,5.6,5.6,0,0,0,2.047.387c4.21,0,5.22-3.6,5.761-5.539.267-.958.637-2.279,1.034-3.739l14.119-51.3A8.235,8.235,0,0,0,1086.484,10030.719Zm-44.408,62.388s-5.238,8.432-5.683,8.432c-.012,0-.018-.006-.024-.018-.514-1.367-5.689-12.708-5.689-12.708-.953-2.273-.781-4.22.859-4.22a3.515,3.515,0,0,1,1.3.3l4.018,2.065a10.949,10.949,0,0,0,2.209,1.159l.2.077.378.19C1042.746,10090.008,1043.735,10090.6,1042.076,10093.106Zm40.2-56.345-14.112,51.3c-.8,2.893-1.461,5.255-1.476,5.255a.153.153,0,0,1-.027-.072c0-.018-2.3-.951-5.115-2.086l-9.262-3.729c-2.813-1.126-7.426-2.948-10.254-4.027l-.469-.184-1.731-.889c-1.713-1.3-1.866-3.441-.141-5.258l28.658-30.342c1.151-1.215,1.584-1.841,1.334-1.841a6.565,6.565,0,0,0-1.9,1.229l-36.255,28.279a10.64,10.64,0,0,1-6.245,1.9,8.994,8.994,0,0,1-3.237-.556l-8.348-3.268c-2.822-1.105-2.93-3.144-.243-4.542l65.385-33.9a4.411,4.411,0,0,1,1.962-.572C1082.2,10033.46,1082.845,10034.677,1082.274,10036.762Z" transform="translate(-1005.989 -10028.004)"/>
</svg>
