<svg xmlns="http://www.w3.org/2000/svg" viewBox="0 0 102.16 102.476">
  <defs>
    <style>
      .cls-1 {
        fill: #fe0000;
      }
    </style>
  </defs>
  <g id="rocket-hitting-target" transform="translate(-0.04 0.1)">
    <path id="Path_7" data-name="Path 7" class="cls-1" d="M102.2,18.4c-2.1,2.2-4.4,4.2-6.4,6.6-2.6,3-5.4,5-9.7,3.5-.8-.3-2.6,1.2-3.3,2.3-4.9,7.7-10.3,15.1-18.2,19.8-4.4,2.6-9.4,4.1-14.4,5.5-3.5,1-4.7-.5-4.2-4.1A33.792,33.792,0,0,1,56.8,31.1,166.572,166.572,0,0,1,71.5,19.5c1.8-1.3,3-2.2,2.1-4.7-1-2.8-.1-5.1,2.2-7.1,2.8-2.4,5.3-5.2,8-7.8h2.4c1.6,9.1,7,14.3,16,16C102.2,16.8,102.2,17.6,102.2,18.4Z"/>
    <path id="Path_8" data-name="Path 8" class="cls-1" d="M67.3,55.5c2.9-2.3,5.4-4.3,8.1-6.5,6.5,9.6,11.3,19.6,11,31.5-.3,12.5-8.5,21-21,21.8-9.5.6-18.2-2.4-26.2-7.2C21.4,84.7,8.2,70.3,1.9,50.5A37.678,37.678,0,0,1,.2,35.6C1.7,20.9,14,13.3,30.3,16.6A59.984,59.984,0,0,1,53.2,26.9c-2.1,2.6-4.1,5.2-6,7.6-5.4-2.3-10.5-4.8-15.8-6.8a28.665,28.665,0,0,0-8.2-1.3c-8.2-.3-12.8,4.3-12.6,12.5.2,9.7,4.4,18,10,25.6C29,76.1,39.5,85.3,53.4,90a34.27,34.27,0,0,0,11,1.8c7.1,0,11.2-4.5,11.5-11.6.3-6.8-2.2-12.8-5.1-18.6C69.7,59.5,68.5,57.6,67.3,55.5Z"/>
    <path id="Path_9" data-name="Path 9" class="cls-1" d="M44.5,38.1c-1.3,4.5-2.6,8.2-3.5,12.1-1.7,8,2.8,12.5,10.7,10.9,3.9-.8,7.6-2.1,11.8-3.3,2.7,3.9,4.7,8.2,4.4,13.4-.3,5.1-3.8,9.1-8.9,8.8a27.633,27.633,0,0,1-11.3-3.1A53.336,53.336,0,0,1,24.4,53a22.19,22.19,0,0,1-2.2-7.6c-.6-8,4.2-12.4,12.1-10.9C37.9,35.2,41.2,36.9,44.5,38.1Z"/>
  </g>
</svg>
