<svg xmlns="http://www.w3.org/2000/svg" viewBox="0 0 88.998 73.001">
  <defs>
    <style>
      .cls-1 {
        fill: #fe0000;
      }
    </style>
  </defs>
  <path id="Unchained-Podcast" class="cls-1" d="M1009.822,10353a7.831,7.831,0,0,1-7.821-7.821v-57.359a7.829,7.829,0,0,1,7.821-7.82h73.357a7.829,7.829,0,0,1,7.821,7.82v57.359a7.831,7.831,0,0,1-7.821,7.821Zm69.22-5.215h4.136a2.609,2.609,0,0,0,2.606-2.606v-2.608h-1.528Zm-15.644,0h8.27l5.215-5.215h-8.27Zm-15.992,0h8.618l5.215-5.215h-8.618Zm-15.644,0h8.27l5.215-5.215h-8.27Zm-15.644,0h8.27l5.215-5.215h-8.27Zm-8.9-2.606a2.607,2.607,0,0,0,1.694,2.438l5.048-5.046h-6.742Zm0-7.823h78.569v-41.715h-78.569Zm71.826-46.927h6.742v-2.609a2.608,2.608,0,0,0-1.694-2.437Zm-15.644,0h8.27l5.215-5.215h-8.27Zm-15.992,0h8.618l5.215-5.215h-8.618Zm-15.644,0h8.27l5.215-5.215h-8.27Zm-15.644,0h8.27l5.215-5.215h-8.27Zm-8.9-2.609v2.609h1.525l5.217-5.215h-4.136A2.609,2.609,0,0,0,1007.216,10287.819Zm7.818,44.321a2.606,2.606,0,0,1,0-5.212h26.081a2.606,2.606,0,0,1,0,5.212Zm47.283-10.427a2.608,2.608,0,0,1-2.606-2.608v-15.642a2.608,2.608,0,0,1,2.606-2.608h15.647a2.608,2.608,0,0,1,2.606,2.608v15.642a2.608,2.608,0,0,1-2.606,2.608Zm2.609-5.215h10.429v-10.427h-10.429Zm-49.892,5.21a2.6,2.6,0,0,1,0-5.21h15.652a2.6,2.6,0,0,1,0,5.21Z" transform="translate(-1002.001 -10279.999)"/>
</svg>
