<svg xmlns="http://www.w3.org/2000/svg" viewBox="0 0 94 81.001">
  <defs>
    <style>
      .cls-1 {
        fill: #fe0000;
      }
    </style>
  </defs>
  <path id="Upcoming-Webinars" class="cls-1" d="M686.851,10355a2.851,2.851,0,0,1-2.851-2.852v-4a2.85,2.85,0,0,1,2.851-2.851h.018a2.85,2.85,0,0,1,2.851,2.851v4a2.851,2.851,0,0,1-2.851,2.852Zm4.6-2.482v-4.74h57.173a2.37,2.37,0,1,1,0,4.74Zm-32.074,0a2.37,2.37,0,1,1,0-4.74h22.88v4.74Zm1.926-9.189a4.294,4.294,0,0,1-4.3-4.287v-60.754a4.293,4.293,0,0,1,4.3-4.288h85.4a4.3,4.3,0,0,1,4.3,4.288v60.754a4.3,4.3,0,0,1-4.3,4.287Zm2.152-6.432h81.092v-56.466H663.454Zm21.185-4.176c-3.61,0,3.046-15.793,3.043-15.793a3.99,3.99,0,0,1,2.25-1.913l6.123-2.809,2.942-2.472,4.727,4.686h0l-2.037,13.592a.17.17,0,0,0,.031.132l2.134,2.908a.178.178,0,0,0,.291,0l2.134-2.908a.182.182,0,0,0,.031-.132l-2.04-13.592h.005l4.727-4.686,2.942,2.472,6.123,2.809a3.933,3.933,0,0,1,2.248,1.913s6.655,15.793,3.046,15.793Zm8.319-37.3c-.07-6.77,3.165-10.818,11.042-10.818s11.11,4.049,11.042,10.818c-.107,9.751-6.372,15.566-11.042,15.566C698.535,10310.99,693.064,10305.175,692.958,10295.424Zm2.656,2.492c.637,5.354,3.8,10.707,8.386,10.707,4.369,0,8.339-6.442,8.389-10.709.049-4.546-1.957-2.955-4.9-1.362a10.092,10.092,0,0,1-5.709,1.588c2.054-2.523-.068-4.074-2.37-4.074C697.419,10294.065,695.292,10295.225,695.614,10297.916Z" transform="translate(-657.001 -10274)"/>
</svg>
